# xmcd
#
# Track frame offsets: 
#        150
#        22182
#        42932
#        61345
#        74307
#        97449
#        122922
#        143502
#        159926
#        176429
#        196123
#        216662
#
# Disc length: 3068 seconds
#
# Revision: 0
# Processed by: cddbd v1.5.2PL0 Copyright (c) Steve Scherf et al.
# Submitted via: ExactAudioCopy v1.0b1
#
DISCID=b20bfa0c
DTITLE=Roland Van Campenhout - Essential
DYEAR=2005
DGENRE=Blues
TTITLE0=Little Sweet Taste
TTITLE1=Me And Blind Willie
TTITLE2=The Blues Before You Were Born
TTITLE3=Dreaming My Dream With You
TTITLE4=Moonlight Lady
TTITLE5=Ballad Of Jean Harlow
TTITLE6=Betcha Goodnight
TTITLE7=That's Amore
TTITLE8=Rubber Burning
TTITLE9=Oorlogsgeleerden
TTITLE10=Kosher Kamasutra
TTITLE11=A Man Needs A Plan
EXTD=
EXTT0=
EXTT1=
EXTT2=
EXTT3=
EXTT4=
EXTT5=
EXTT6=
EXTT7=
EXTT8=
EXTT9=
EXTT10=
EXTT11=
PLAYORDER=
